<svg xmlns="http://www.w3.org/2000/svg" height="48" width="48"><path d="M8.75 24.65 1.05 17l7.7-7.65L16.4 17Zm9.4 20.4v-10.4q-3.25-.25-6.325-.675Q8.75 33.55 5.65 32.8l1.05-3.85q4.3 1.1 8.6 1.475t8.7.375q4.45 0 8.8-.375 4.35-.375 8.6-1.475l1 3.85q-3.1.7-6.2 1.175-3.1.475-6.3.625v10.45Zm-9.4-25.7 2.3-2.35-2.3-2.35L6.4 17Zm15.2-6.9q-2.5 0-4.175-1.7Q18.1 9.05 18.1 6.5q0-2.5 1.7-4.2Q21.5.6 24.05.6q2.5 0 4.2 1.75 1.7 1.75 1.7 4.25t-1.75 4.175q-1.75 1.675-4.25 1.675Zm.05 15.3q-1.7 0-2.925-1.225Q19.85 25.3 19.85 23.6q0-1.7 1.225-2.95Q22.3 19.4 24 19.4q1.7 0 2.925 1.25 1.225 1.25 1.225 2.95 0 1.65-1.225 2.9T24 27.75ZM24 8.6q.95 0 1.525-.525T26.1 6.6q0-1-.575-1.575T24 4.45q-.95 0-1.5.575t-.55 1.525q0 1 .55 1.525.55.525 1.5.525Zm11.8 15.3L32.55 18l3.35-5.95h6.65l3.3 5.95-3.35 5.9Zm2.2-3.85h2.3L41.55 18l-1.15-2.1h-2.35l-1.2 2.1ZM8.75 17ZM24 6.55ZM39.2 18Z"/></svg>