<svg xmlns="http://www.w3.org/2000/svg" height="48" width="48"><path d="M11 45v-9.15q-2.85-2.7-4.425-6.3Q5 25.95 5 22q0-7.95 5.55-13.525T24 2.9q6.6 0 11.675 3.95Q40.75 10.8 42.4 17l2.8 11.2q.3 1.15-.375 1.975Q44.15 31 43.05 31H39.1v5.45q0 1.9-1.35 3.225Q36.4 41 34.5 41h-3.4v4h-4.6v-8.55h8v-10h5.55L38 18.15q-1.25-4.65-5.175-7.65T24 7.5q-6 0-10.225 4.225T9.55 21.9q0 3.1 1.275 5.9 1.275 2.8 3.575 4.95l1.15 1.05V45Zm13.8-18.75ZM23.65 33q1.1 0 1.725-.675T26 30.7q0-1-.675-1.65-.675-.65-1.675-.65t-1.65.65q-.65.65-.65 1.65 0 .95.625 1.625T23.65 33Zm-1.8-6.75h3.7q0-1.45.375-2.25t1.525-2.1q1.1-1.2 1.725-2.175.625-.975.625-2.425 0-2.25-1.725-3.775T23.8 12q-2.05 0-3.775 1.3T17.6 16.65L20.85 18q.3-1.15 1.15-1.825.85-.675 1.85-.675 1.05 0 1.625.475t.575 1.325q0 .75-.475 1.45t-1.375 1.7q-1.25 1.4-1.8 2.6-.55 1.2-.55 3.2Z"/></svg>